<svg version="1.1" id="Layer_1" xmlns="http://www.w3.org/2000/svg" xmlns:xlink="http://www.w3.org/1999/xlink" x="0px" y="0px"
	 width="100%" viewBox="0 0 720 1024" enable-background="new 0 0 720 1024" xml:space="preserve">
<path fill="#000000" opacity="1.000000" stroke="none" 
	d="
M420.578705,594.476074 
	C425.078278,602.301392 429.463287,609.771545 433.649536,617.351562 
	C435.117157,620.008972 437.044037,621.095825 440.048523,621.118347 
	C456.204193,621.239258 472.359711,621.442322 488.513184,621.733276 
	C491.497345,621.787048 493.412537,620.872742 494.961609,618.169373 
	C502.910309,604.297668 510.954285,590.478210 519.175049,576.766418 
	C521.188477,573.408264 520.847534,570.689148 519.015564,567.506958 
	C511.953064,555.238953 505.161743,542.813599 498.007294,530.600464 
	C495.382935,526.120483 494.417267,521.823242 496.848175,516.797424 
	C500.652100,517.161682 501.348022,520.841431 502.843079,523.223877 
	C511.676605,537.300293 520.150024,551.595581 528.325928,566.072937 
	C530.978516,570.769958 530.721313,574.398193 528.001587,578.953186 
	C519.040222,593.961853 510.367249,609.148743 501.895264,624.439880 
	C499.387726,628.965759 496.365356,630.657043 491.151276,630.625977 
	C480.343170,630.561646 469.517426,631.109497 458.723602,631.794556 
	C450.857697,632.293762 443.137726,630.783081 435.315948,630.741760 
	C431.797546,630.723145 429.253448,628.245422 427.562256,625.123352 
	C418.048676,607.560486 407.086304,590.799133 398.539032,572.705322 
	C397.662476,570.849792 396.610321,570.578674 394.644287,570.686218 
	C374.673798,571.777649 354.693115,570.848816 334.715668,570.791504 
	C331.048126,570.781006 328.468872,568.936157 326.669342,565.776184 
	C317.687347,550.003906 308.698578,534.235168 299.641388,518.506042 
	C297.135986,514.155029 297.356537,510.221893 299.961914,505.869720 
	C308.943481,490.866852 317.790161,475.779327 326.411346,460.567139 
	C328.842407,456.277496 332.110535,454.101562 336.805603,454.146332 
	C355.456818,454.324127 374.106903,454.624969 392.757385,454.879364 
	C395.157501,454.912079 396.748077,456.219452 398.086609,458.080811 
	C409.689484,474.215546 418.598389,491.950592 428.377808,509.164398 
	C430.318207,512.579895 429.894318,513.518677 426.768433,520.714111 
	C434.222565,509.316071 445.570709,515.271545 455.252899,514.207153 
	C460.404297,513.640869 465.741364,514.763184 471.000519,515.491211 
	C467.430054,517.269287 463.613403,517.019104 459.863800,517.011169 
	C453.374207,516.997375 446.888062,517.239868 440.396851,516.514832 
	C435.790405,516.000183 431.783752,517.608521 429.356079,521.818604 
	C421.870483,534.799927 414.469330,547.829956 407.042145,560.844971 
	C406.730316,561.391418 406.232880,561.942444 407.034058,562.912842 
	C414.195496,554.158264 417.586212,542.857971 426.059052,533.959595 
	C427.320526,537.710388 425.821472,539.573364 424.715607,541.517700 
	C419.941223,549.912109 415.295105,558.384033 410.315033,566.654846 
	C408.130829,570.282349 408.355713,573.304688 410.494080,576.798035 
	C413.970428,582.477173 417.106323,588.364685 420.578705,594.476074 
M398.065277,473.368286 
	C397.256531,471.914001 396.223022,470.538422 395.681152,468.990723 
	C394.058960,464.357239 390.998291,463.060974 386.127167,463.162354 
	C370.986359,463.477356 355.831451,463.381805 340.687683,463.119476 
	C336.433960,463.045807 334.071960,464.568726 332.026978,468.199982 
	C324.516449,481.536224 316.761078,494.736237 308.962433,507.907349 
	C307.260529,510.781708 306.956329,513.234924 308.689209,516.235352 
	C316.762024,530.213135 324.735016,544.249512 332.612518,558.338318 
	C334.122772,561.039368 336.071899,561.920959 339.057861,561.912903 
	C355.370544,561.868896 371.684235,561.925964 387.996155,562.089844 
	C391.069611,562.120728 392.804443,560.931946 394.304413,558.298401 
	C402.210846,544.416748 410.220306,530.592041 418.373230,516.854004 
	C420.018311,514.081970 420.174988,511.952545 418.504425,509.106354 
	C411.682404,497.483612 405.103821,485.718018 398.065277,473.368286 
M391.328735,457.529449 
	C385.073761,457.529449 378.818787,457.529449 372.563812,457.529449 
	C379.537964,458.815491 386.505310,458.374054 393.562042,458.717712 
	C393.026154,458.394989 392.490234,458.072235 391.328735,457.529449 
M334.875275,457.972839 
	C332.697906,456.839081 331.890106,458.871582 330.923462,459.924347 
	C328.132202,462.964417 326.424377,466.691162 324.799103,470.452484 
	C328.591003,466.801025 329.605377,460.924683 334.875275,457.972839 
z"/>
<path fill="#000000" opacity="1.000000" stroke="none" 
	d="
M530.961487,458.026947 
	C533.562439,454.949799 537.126282,454.121887 540.865234,454.146729 
	C559.686829,454.271729 578.507690,454.514130 597.329102,454.681763 
	C600.131287,454.706757 602.093140,456.021423 603.426575,458.345490 
	C613.124695,475.248077 622.805359,492.160736 632.477600,509.078186 
	C634.134949,511.977081 633.737610,514.781189 632.089661,517.589966 
	C622.566956,533.820374 613.053162,550.056213 603.604736,566.329956 
	C601.643921,569.707214 598.855164,571.295593 595.015320,571.274353 
	C576.520447,571.171814 558.025574,571.074280 539.530579,570.998901 
	C535.495300,570.982483 532.646973,569.293335 530.628479,565.705566 
	C521.481201,549.446533 512.231567,533.244873 502.979340,517.045166 
	C500.950714,513.493286 501.199310,510.277679 503.302734,506.737183 
	C511.722870,492.564331 519.963989,478.284973 528.234436,464.023621 
	C529.232300,462.302917 530.006042,460.452240 530.939697,458.326172 
	C530.995728,457.990479 530.961487,458.026947 530.961487,458.026947 
M537.020325,466.336517 
	C528.845276,480.448090 520.706665,494.580994 512.459778,508.650421 
	C511.060547,511.037476 510.804810,513.011963 512.269348,515.543640 
	C520.519226,529.805115 528.655945,544.132690 536.718994,558.500793 
	C538.122559,561.001892 539.900696,561.959656 542.726318,561.950928 
	C558.874878,561.901001 575.024170,561.939941 591.172363,562.061157 
	C594.312012,562.084656 596.468811,561.128906 598.092896,558.285217 
	C606.099365,544.266235 614.209290,530.305603 622.386902,516.385559 
	C623.826172,513.935486 623.821716,511.895721 622.414124,509.440918 
	C614.383728,495.436615 606.423096,481.391571 598.549622,467.298523 
	C597.009033,464.540985 595.153809,463.213470 591.846985,463.236755 
	C575.532593,463.351501 559.216675,463.267517 542.901428,463.217560 
	C540.651550,463.210693 538.532471,463.296783 537.020325,466.336517 
z"/>
<path fill="#000000" opacity="1.000000" stroke="none" 
	d="
M531.010132,457.970093 
	C522.776733,469.671112 516.495972,482.571198 508.995056,494.741150 
	C506.638458,498.564667 504.411224,502.474060 502.274689,506.425232 
	C500.506378,509.695465 497.896240,511.260162 494.203735,511.249329 
	C475.390533,511.194275 456.577271,511.154907 437.764008,511.145782 
	C433.696228,511.143799 430.875641,509.366608 428.882355,505.818451 
	C419.915924,489.857758 410.940887,473.900635 401.790588,458.045227 
	C399.507904,454.089874 399.729584,450.803619 402.038879,446.922943 
	C411.230438,431.477173 420.244110,415.923737 429.152588,400.312561 
	C431.360748,396.442963 434.059753,394.535645 438.693390,394.587982 
	C457.005157,394.794739 475.320465,394.769012 493.633820,394.687622 
	C497.738434,394.669373 500.545319,396.145264 502.585541,399.744141 
	C511.696869,415.815765 520.907349,431.831329 530.128662,447.840240 
	C531.876465,450.874512 532.891113,453.895477 531.078796,457.650024 
	C530.961487,458.026947 530.995728,457.990479 531.010132,457.970093 
M413.996857,461.541504 
	C420.823273,473.554169 427.671326,485.554657 434.457764,497.589874 
	C435.819489,500.004730 437.176758,501.997894 440.437714,502.025909 
	C457.083435,502.168823 473.728363,502.422882 490.372375,502.708771 
	C492.993652,502.753784 494.749420,501.799377 496.065552,499.516815 
	C504.464203,484.951477 512.921082,470.419647 521.387268,455.893372 
	C522.382263,454.186188 522.691650,452.648621 521.616577,450.782806 
	C513.140015,436.071442 504.722565,421.325867 496.316284,406.574097 
	C495.036530,404.328369 493.282867,403.325928 490.634064,403.333527 
	C474.149292,403.380920 457.663879,403.365784 441.179596,403.248138 
	C438.493561,403.228973 436.871399,404.252930 435.572754,406.506409 
	C427.345001,420.784119 419.087952,435.045471 410.725342,449.244385 
	C409.253357,451.743622 409.293854,453.827118 410.897125,456.144135 
	C411.934448,457.643280 412.718506,459.317627 413.996857,461.541504 
z"/>
<path fill="#000000" opacity="1.000000" stroke="none" 
	d="
M197.216675,565.398682 
	C206.104721,550.089905 214.857010,535.141785 223.453094,520.104431 
	C225.994873,515.658020 229.089920,513.478821 234.625443,513.600891 
	C252.282074,513.990112 269.953125,513.865601 287.616608,513.710083 
	C292.342285,513.668518 295.530182,515.418945 297.815338,519.450317 
	C307.010773,535.672852 316.283264,551.851746 325.511993,568.055481 
	C327.021057,570.705139 327.169769,573.371155 325.578369,576.105164 
	C315.857056,592.806335 306.158417,609.520752 296.470795,626.241455 
	C294.805237,629.116211 292.391510,630.385742 289.059265,630.374939 
	C270.061249,630.313538 251.062881,630.295715 232.064850,630.345581 
	C228.294312,630.355530 225.859207,628.696899 224.042709,625.481018 
	C214.947769,609.379517 205.825089,593.292725 196.567062,577.284790 
	C194.190460,573.175415 194.090698,569.470581 197.216675,565.398682 
M268.499939,621.658325 
	C273.830750,621.667664 279.169373,621.506104 284.489502,621.749207 
	C287.780670,621.899658 289.679993,620.579041 291.263428,617.819946 
	C299.386017,603.665894 307.595917,589.561279 315.893707,575.509277 
	C317.258728,573.197754 317.241180,571.354553 315.919617,569.061707 
	C307.769836,554.922363 299.691345,540.741516 291.687286,526.519165 
	C290.138306,523.766846 288.174622,522.377380 284.930786,522.389099 
	C268.605652,522.448120 252.279892,522.419128 235.954941,522.322937 
	C233.515305,522.308533 231.892761,523.088257 230.661423,525.219360 
	C222.330795,539.637512 213.941879,554.021973 205.551865,568.405640 
	C204.282562,570.581604 204.043747,572.548462 205.419968,574.923218 
	C213.434265,588.752380 221.414993,602.603638 229.156387,616.586304 
	C231.227921,620.327881 233.972885,621.638489 238.014786,621.601501 
	C247.842194,621.511536 257.671478,621.623657 268.499939,621.658325 
z"/>
<path fill="#000000" opacity="1.000000" stroke="none" 
	d="
M358.000000,333.812286 
	C368.829712,333.847900 379.159821,333.950226 389.488922,333.886414 
	C394.455078,333.855743 397.825531,335.681610 400.342773,340.238770 
	C409.120605,356.129883 418.183014,371.865509 427.289307,387.572083 
	C429.276642,390.999817 429.332397,393.905762 427.283081,397.319733 
	C417.768860,413.169495 408.363739,429.085541 399.035950,445.045868 
	C396.975769,448.570862 394.283173,450.320648 390.156097,450.304108 
	C371.496246,450.229309 352.835968,450.255402 334.175903,450.282166 
	C330.672546,450.287170 328.147003,448.839630 326.410217,445.795288 
	C317.086121,429.451477 307.746277,413.116608 298.369629,396.802917 
	C296.416077,393.404053 296.672699,390.280640 298.643707,386.936157 
	C307.946045,371.151337 317.208771,355.342133 326.324738,339.449341 
	C328.678467,335.345795 331.841278,333.622620 336.508392,333.754364 
	C343.500549,333.951691 350.502319,333.808868 358.000000,333.812286 
M407.081665,422.688110 
	C407.201782,422.267242 407.660797,421.807098 406.976349,421.477997 
	C406.890076,421.436554 406.636475,421.576660 406.565247,421.695465 
	C405.624237,423.265503 404.809387,424.922974 403.754913,426.411102 
	C400.593170,430.873047 398.698090,436.257538 394.120789,440.305695 
	C393.880707,437.545685 395.131348,435.920044 396.103180,434.220795 
	C403.378540,421.499634 410.636292,408.767975 418.008179,396.102814 
	C419.394318,393.721344 419.726868,391.784515 418.232880,389.217834 
	C410.276917,375.549286 402.402100,361.830597 394.739258,347.996277 
	C392.692993,344.302094 390.177551,343.014465 385.987061,343.061096 
	C370.330566,343.235291 354.667511,343.161957 339.012787,342.868256 
	C335.703827,342.806152 333.895844,343.699677 332.273804,346.547882 
	C324.363678,360.437408 316.330658,374.259155 308.142944,387.986664 
	C306.348969,390.994446 306.542694,393.342651 308.221802,396.243591 
	C316.230988,410.080872 324.145447,423.974396 331.929443,437.939392 
	C333.526489,440.804626 335.518860,441.833313 338.717316,441.823792 
	C350.544067,441.788605 362.372009,441.939301 374.197968,442.121796 
	C376.026489,442.150024 378.180389,441.352386 380.159729,443.989075 
	C366.202240,445.343048 352.714020,445.007904 339.252930,445.448425 
	C356.016296,445.796082 372.773865,445.834442 389.531006,445.761292 
	C392.604431,445.747864 394.803741,443.973969 396.326202,441.335052 
	C399.818909,435.281006 403.333771,429.239746 407.081665,422.688110 
z"/>
<path fill="#000000" opacity="1.000000" stroke="none" 
	d="
M320.391235,676.539795 
	C313.188568,663.932495 306.247223,651.597046 299.100189,639.382019 
	C296.750977,635.366943 296.582062,631.882324 299.076355,627.775330 
	C306.685242,615.246887 313.977905,602.526611 321.429108,589.901917 
	C322.332611,588.371033 323.106354,586.665710 326.025269,586.471313 
	C317.717255,601.047974 309.409241,615.624573 301.101196,630.201233 
	C301.387878,630.354553 301.674591,630.507874 301.961273,630.661194 
	C310.296021,616.512939 318.808533,602.465027 326.880920,588.168640 
	C330.266907,582.171936 334.291199,579.513916 341.587097,579.785706 
	C358.619629,580.420593 375.691925,579.988464 392.925018,579.988464 
	C391.487427,576.995667 388.140839,578.951416 386.376160,577.071045 
	C393.088135,574.935730 396.284241,575.793884 399.450195,581.186707 
	C408.809296,597.128662 417.975647,613.183655 427.315704,629.136963 
	C429.182526,632.325562 429.448456,635.182373 427.521637,638.466125 
	C417.828613,654.985046 408.236511,671.563232 398.642303,688.139954 
	C396.948669,691.066162 394.378571,692.224609 391.157379,692.218811 
	C372.494598,692.185120 353.831757,692.152832 335.169098,692.078369 
	C331.231018,692.062683 328.130646,690.624512 326.241180,686.846252 
	C324.531311,683.427185 322.475677,680.181030 320.391235,676.539795 
M394.729431,677.299377 
	C402.355591,664.215210 409.905762,651.085693 417.666382,638.081787 
	C419.400757,635.175537 419.608673,632.865356 417.862000,629.858704 
	C409.672119,615.761169 401.660522,601.559509 393.663696,587.350830 
	C392.482544,585.252197 391.093903,584.188354 388.570679,584.169373 
	C371.931305,584.043945 355.284546,584.408569 338.654816,583.515381 
	C335.969452,583.371094 334.013367,584.284119 332.559479,586.850708 
	C324.360260,601.324768 316.029694,615.724915 307.669861,630.107178 
	C306.351196,632.375793 306.358368,634.245850 307.705017,636.564636 
	C315.895020,650.666992 324.000244,664.819580 331.986877,679.037903 
	C333.474457,681.686157 335.210846,682.781738 338.292603,682.771118 
	C354.106506,682.716736 369.923492,682.744385 385.733887,683.039795 
	C389.961548,683.118774 392.776978,681.831970 394.729431,677.299377 
z"/>
<path fill="#000000" opacity="1.000000" stroke="none" 
	d="
M217.777008,501.292175 
	C221.291656,506.193207 218.731812,508.389832 214.265381,510.123627 
	C207.320129,500.997528 202.223206,490.684875 196.387146,480.835754 
	C194.944000,478.400269 193.134293,476.054260 192.294403,473.412354 
	C189.487579,464.583374 183.513641,462.417877 174.746658,462.885468 
	C160.953613,463.621094 147.098633,463.256317 133.270264,463.218140 
	C130.441360,463.210327 128.697678,464.136383 127.279724,466.649811 
	C119.425468,480.571930 111.482910,494.445557 103.414452,508.244507 
	C101.695839,511.183716 101.616699,513.663025 103.298698,516.596008 
	C111.336571,530.612122 119.314644,544.663574 127.170753,558.782227 
	C128.782684,561.679016 131.136154,561.825317 133.905411,561.873047 
	C149.725861,562.145386 165.563110,561.452820 181.366547,562.659241 
	C183.211090,562.800171 185.724991,562.334900 184.581131,565.730896 
	C190.249893,566.108154 192.057556,561.462341 194.872620,557.889709 
	C196.203262,564.264954 190.803818,571.023132 184.377731,571.103577 
	C171.882950,571.260254 159.384674,571.138245 146.887848,571.130066 
	C141.389175,571.126404 135.889969,571.068115 130.392014,571.128601 
	C125.984840,571.177124 122.872658,569.442261 120.646004,565.484070 
	C111.745369,549.661804 102.742104,533.895874 93.616669,518.202271 
	C91.173630,514.000854 91.115952,510.433014 93.707390,506.145172 
	C102.838516,491.036743 111.765198,475.799347 120.458160,460.434784 
	C122.996506,455.948334 126.241570,453.943909 131.263596,454.026978 
	C149.749619,454.332581 168.237259,454.549561 186.724899,454.740234 
	C190.832809,454.782593 192.999008,457.334167 194.820358,460.481140 
	C202.577087,473.883270 210.522781,487.179199 217.777008,501.292175 
M182.546082,458.807770 
	C183.409470,458.587524 184.508713,459.415222 185.511551,457.701233 
	C175.262497,458.576660 165.363556,457.980011 155.473190,458.785858 
	C164.235870,458.785858 172.998566,458.785858 182.546082,458.807770 
z"/>
<path fill="#000000" opacity="1.000000" stroke="none" 
	d="
M234.908493,504.800873 
	C231.345612,511.309967 227.991730,511.667542 224.339767,505.640869 
	C214.586578,489.545563 205.082306,473.299500 196.158707,456.721771 
	C194.328461,453.321655 194.474930,450.206268 196.455078,446.829956 
	C205.640244,431.168304 214.758957,415.466431 223.732452,399.682831 
	C226.133469,395.459625 229.201431,393.550262 234.183075,393.628815 
	C251.675232,393.904541 269.173126,393.932343 286.667938,393.853699 
	C292.065399,393.829468 295.716736,395.859558 298.491150,400.551086 
	C307.560181,415.886993 316.513519,431.282074 324.903381,447.003510 
	C326.655304,450.286407 327.511322,453.306213 325.342438,456.829865 
	C316.188232,471.702332 307.169464,486.658081 298.091431,501.577484 
	C297.429077,502.666046 297.091248,504.132538 294.555450,504.178284 
	C301.026245,486.607361 312.256744,471.934814 320.003357,455.438293 
	C310.727173,469.706573 302.959564,484.908844 293.132935,499.391571 
	C291.633575,497.314545 292.852875,496.094910 293.458069,494.976715 
	C300.435120,482.085205 307.670349,469.334015 315.594330,457.003296 
	C317.525574,453.998047 317.473175,451.720795 315.771820,448.802979 
	C307.801331,435.133667 299.890137,421.428253 292.130981,407.638275 
	C290.005371,403.860565 287.381317,402.112732 282.897491,402.434448 
	C278.605347,402.742401 274.153748,402.724457 269.946289,401.929016 
	C260.720428,400.184845 251.667404,403.073792 242.604904,402.470459 
	C233.512360,401.865112 229.450592,406.659363 225.739349,413.888947 
	C220.350220,424.387054 214.153397,434.485687 207.993149,444.566528 
	C204.831741,449.739990 204.992050,454.305908 208.047897,459.453827 
	C214.423767,470.194733 220.379898,481.183838 226.619598,492.006927 
	C229.576233,497.135345 231.192581,504.011566 240.194443,501.960846 
	C238.525040,504.640137 236.429123,503.505920 234.908493,504.800873 
z"/>
</svg>