<svg width="1979" height="2402" xmlns="http://www.w3.org/2000/svg" xmlns:xlink="http://www.w3.org/1999/xlink" xml:space="preserve" overflow="hidden"><defs><clipPath id="clip0"><rect x="1232" y="31" width="1979" height="2402"/></clipPath></defs><g clip-path="url(#clip0)" transform="translate(-1232 -31)"><path d="M2320 672 2391.5 529 2560.5 529 2632 672 2560.5 815 2391.5 815Z" fill="#5271FF" fill-rule="evenodd"/><path d="M2320 974 2391.5 831 2560.5 831 2632 974 2560.5 1117 2391.5 1117Z" fill="#5271FF" fill-rule="evenodd"/><path d="M2577 825 2648.5 682 2817.5 682 2889 825 2817.5 968 2648.5 968Z" fill="#1C3D86" fill-rule="evenodd"/><path d="M2066 825 2137.5 682 2305.5 682 2377 825 2305.5 968 2137.5 968Z" fill="#1C3D86" fill-rule="evenodd"/><path d="M1812 672 1883.5 529 2052.5 529 2124 672 2052.5 815 1883.5 815Z" fill="#5271FF" fill-rule="evenodd"/><path d="M1812 974 1883.5 831 2052.5 831 2124 974 2052.5 1117 1883.5 1117Z" fill="#5271FF" fill-rule="evenodd"/><path d="M1559 825 1630.5 682 1799.5 682 1871 825 1799.5 968 1630.5 968Z" fill="#1C3D86" fill-rule="evenodd"/><text fill="#1C3D86" font-family="Calibri,Calibri_MSFontService,sans-serif" font-weight="700" font-size="403" transform="matrix(1 0 0 1 1474.17 2084)">KIRITRA</text><path d="M2917.5 1622.5C2917.5 1550.7 2975.48 1492.5 3047 1492.5 3118.52 1492.5 3176.5 1550.7 3176.5 1622.5 3176.5 1694.3 3118.52 1752.5 3047 1752.5 2975.48 1752.5 2917.5 1694.3 2917.5 1622.5Z" stroke="#1C3D86" stroke-width="46.9792" stroke-miterlimit="8" fill="none" fill-rule="evenodd"/><path d="M1267.5 1622.5C1267.5 1550.7 1325.7 1492.5 1397.5 1492.5 1469.3 1492.5 1527.5 1550.7 1527.5 1622.5 1527.5 1694.3 1469.3 1752.5 1397.5 1752.5 1325.7 1752.5 1267.5 1694.3 1267.5 1622.5Z" stroke="#1C3D86" stroke-width="46.9792" stroke-miterlimit="8" fill="none" fill-rule="evenodd"/><path d="M2092.5 1630C2092.5 1558.48 2150.48 1500.5 2222 1500.5 2293.52 1500.5 2351.5 1558.48 2351.5 1630 2351.5 1701.52 2293.52 1759.5 2222 1759.5 2150.48 1759.5 2092.5 1701.52 2092.5 1630Z" stroke="#1C3D86" stroke-width="46.9792" stroke-miterlimit="8" fill="none" fill-rule="evenodd"/><path d="M0 0 267.7 0 267.7 312.854 535.4 312.854" stroke="#1C3D86" stroke-width="46.9792" stroke-linecap="round" stroke-miterlimit="8" fill="none" fill-rule="evenodd" transform="matrix(1 0 0 -1 1527.5 1622.35)"/><path d="M2916.6 1622.35 2679.05 1622.35 2679.05 1309.5 2441.5 1309.5" stroke="#1C3D86" stroke-width="46.9792" stroke-linecap="round" stroke-miterlimit="8" fill="none" fill-rule="evenodd"/><path d="M0 0 0.000360892 190.099" stroke="#1C3D86" stroke-width="46.9792" stroke-miterlimit="8" fill="none" fill-rule="evenodd" transform="matrix(1 0 0 -1 2222.5 1499.6)"/><path d="M2222 54.5002C2457.36 54.5002 2650.94 223.173 2674.21 439.321L2675.26 458.818 2704.09 454.417C2718.5 452.954 2733.12 452.204 2747.91 452.204 2984.61 452.204 3176.5 644.117 3176.5 880.852 3176.5 1102.79 3007.85 1285.34 2791.73 1307.29L2763.59 1308.71 2763.59 1309.5 2747.96 1309.5 2747.91 1309.5 2747.87 1309.5 1698.61 1309.5 1698.61 1309.37 1696.09 1309.5C1459.38 1309.5 1267.5 1117.59 1267.5 880.852 1267.5 644.117 1459.38 452.204 1696.09 452.204 1710.88 452.204 1725.5 452.954 1739.91 454.417L1768.74 458.818 1769.78 439.321C1793.06 223.173 1986.64 54.5002 2222 54.5002Z" stroke="#22A1E2" stroke-width="46.9792" stroke-miterlimit="8" fill="none" fill-rule="evenodd"/></g></svg>