<?xml version="1.0" encoding="UTF-8"?>
<svg xmlns="http://www.w3.org/2000/svg" xmlns:xlink="http://www.w3.org/1999/xlink" viewBox="0 0 24 24" width="24px" height="24px">
<g id="surface52540110">
<path style=" stroke:none;fill-rule:nonzero;fill:rgb(100%,100%,100%);fill-opacity:1;" d="M 12 2.25 C 6.617188 2.25 2.25 6.617188 2.25 12 C 2.25 16.886719 5.851562 20.925781 10.542969 21.628906 L 10.542969 14.582031 L 8.128906 14.582031 L 8.128906 12.019531 L 10.542969 12.019531 L 10.542969 10.316406 C 10.542969 7.492188 11.917969 6.253906 14.265625 6.253906 C 15.386719 6.253906 15.984375 6.335938 16.265625 6.375 L 16.265625 8.609375 L 14.664062 8.609375 C 13.667969 8.609375 13.320312 9.554688 13.320312 10.621094 L 13.320312 12.019531 L 16.238281 12.019531 L 15.84375 14.582031 L 13.320312 14.582031 L 13.320312 21.648438 C 18.078125 21.003906 21.75 16.9375 21.75 12 C 21.75 6.617188 17.382812 2.25 12 2.25 Z M 12 2.25 "/>
</g>
</svg>
