<?xml version="1.0" encoding="UTF-8" standalone="no"?>
<svg
   width="64"
   height="64"
   xml:space="preserve"
   overflow="hidden"
   version="1.1"
   id="svg124"
   sodipodi:docname="kiritra-favicon.svg"
   inkscape:version="1.1 (c68e22c387, 2021-05-23)"
   xmlns:inkscape="http://www.inkscape.org/namespaces/inkscape"
   xmlns:sodipodi="http://sodipodi.sourceforge.net/DTD/sodipodi-0.dtd"
   xmlns="http://www.w3.org/2000/svg"
   xmlns:svg="http://www.w3.org/2000/svg"><sodipodi:namedview
     id="namedview126"
     pagecolor="#ffffff"
     bordercolor="#666666"
     borderopacity="1.0"
     inkscape:pageshadow="2"
     inkscape:pageopacity="0.0"
     inkscape:pagecheckerboard="0"
     showgrid="false"
     width="64in"
     units="px"
     inkscape:zoom="2.2721597"
     inkscape:cx="-18.484616"
     inkscape:cy="38.289561"
     inkscape:window-width="1920"
     inkscape:window-height="1046"
     inkscape:window-x="-11"
     inkscape:window-y="-11"
     inkscape:window-maximized="1"
     inkscape:current-layer="svg124" /><defs
     id="defs104"><clipPath
       id="clip0"><rect
         x="1222"
         y="645"
         width="1957"
         height="1302"
         id="rect101" /></clipPath></defs><g
     clip-path="url(#clip0)"
     transform="matrix(0.03270346,0,0,0.03270346,-39.953573,-11.083674)"
     id="g122"><path
       d="m 2299,1286 71.5,-143 h 168 l 71.5,143 -71.5,143 h -168 z"
       fill="#5271ff"
       fill-rule="evenodd"
       id="path106" /><path
       d="m 2299,1588 71.5,-143 h 168 l 71.5,143 -71.5,143 h -168 z"
       fill="#5271ff"
       fill-rule="evenodd"
       id="path108" /><path
       d="m 2556,1438.5 71.25,-142.5 h 169.5 l 71.25,142.5 -71.25,142.5 h -169.5 z"
       fill="#1c3d86"
       fill-rule="evenodd"
       id="path110" /><path
       d="m 2044,1438.5 71.25,-142.5 h 169.5 l 71.25,142.5 -71.25,142.5 h -169.5 z"
       fill="#1c3d86"
       fill-rule="evenodd"
       id="path112" /><path
       d="m 1791,1286 71.5,-143 h 169 l 71.5,143 -71.5,143 h -169 z"
       fill="#5271ff"
       fill-rule="evenodd"
       id="path114" /><path
       d="m 1791,1588 71.5,-143 h 169 l 71.5,143 -71.5,143 h -169 z"
       fill="#5271ff"
       fill-rule="evenodd"
       id="path116" /><path
       d="m 1538,1438.5 71.25,-142.5 h 169.5 l 71.25,142.5 -71.25,142.5 h -169.5 z"
       fill="#1c3d86"
       fill-rule="evenodd"
       id="path118" /><path
       d="m 2200.5,668.5 c 235.48,0 429.16,168.673 452.45,384.82 l 1.05,19.5 28.85,-4.4 c 14.41,-1.47 29.04,-2.22 43.84,-2.22 236.82,0 428.81,191.92 428.81,428.65 0,221.94 -168.74,404.49 -384.97,426.44 l -28.16,1.42 v 0.79 h -15.64 -0.04 -0.04 -1049.81 v -0.13 l -2.53,0.13 c -236.82,0 -428.81,-191.91 -428.81,-428.65 0,-236.73 191.99,-428.65 428.81,-428.65 14.8,0 29.43,0.75 43.84,2.22 l 28.85,4.4 1.05,-19.5 C 1771.34,837.173 1965.02,668.5 2200.5,668.5 Z"
       stroke="#22a1e2"
       stroke-width="46.9792"
       stroke-miterlimit="8"
       fill="none"
       fill-rule="evenodd"
       id="path120" /></g></svg>
